<?xml version="1.0" encoding="UTF-8"?>
<!DOCTYPE svg PUBLIC "-//W3C//DTD SVG 1.1//EN" "http://www.w3.org/Graphics/SVG/1.1/DTD/svg11.dtd">
<svg xmlns="http://www.w3.org/2000/svg" version="1.1" width="500px" height="500px" style="shape-rendering:geometricPrecision; text-rendering:geometricPrecision; image-rendering:optimizeQuality; fill-rule:evenodd; clip-rule:evenodd" xmlns:xlink="http://www.w3.org/1999/xlink">
<g><path style="opacity:1" fill="#fefefe" d="M -0.5,-0.5 C 166.167,-0.5 332.833,-0.5 499.5,-0.5C 499.5,166.167 499.5,332.833 499.5,499.5C 332.833,499.5 166.167,499.5 -0.5,499.5C -0.5,332.833 -0.5,166.167 -0.5,-0.5 Z"/></g>
<g><path style="opacity:1" fill="#010101" d="M 253.5,117.5 C 254.493,123.453 254.327,129.453 253,135.5C 248.667,162.166 244.333,188.833 240,215.5C 236.921,223.58 231.421,229.414 223.5,233C 190.542,239.163 157.542,243.996 124.5,247.5C 102,219.496 79.6667,191.329 57.5,163C 81.3006,157.721 105.301,153.054 129.5,149C 144.068,145.431 152.901,136.264 156,121.5C 160.493,98.2056 164.66,74.8722 168.5,51.5C 170.783,51.6079 172.783,52.4412 174.5,54C 200.864,75.175 227.197,96.3417 253.5,117.5 Z"/></g>
<g><path style="opacity:1" fill="#010101" d="M 386.5,248.5 C 356.176,244.001 325.843,239.501 295.5,235C 283.064,233.228 274.897,226.395 271,214.5C 265.76,183.583 260.926,152.583 256.5,121.5C 256.437,119.486 257.103,117.819 258.5,116.5C 286.148,94.5236 313.814,72.5236 341.5,50.5C 346.648,75.0462 351.482,99.7128 356,124.5C 359,136.166 366.167,143.999 377.5,148C 402.975,152.755 428.308,157.922 453.5,163.5C 430.738,191.584 408.405,219.917 386.5,248.5 Z"/></g>
<g><path style="opacity:1" fill="#fafafa" d="M 258.5,116.5 C 257.103,117.819 256.437,119.486 256.5,121.5C 260.926,152.583 265.76,183.583 271,214.5C 274.897,226.395 283.064,233.228 295.5,235C 325.843,239.501 356.176,244.001 386.5,248.5C 386.5,248.833 386.5,249.167 386.5,249.5C 352.631,253.941 318.964,259.441 285.5,266C 276.462,271.233 271.295,279.067 270,289.5C 264.893,319.086 260.393,348.753 256.5,378.5C 255.833,378.5 255.167,378.5 254.5,378.5C 250.731,346.015 245.897,313.681 240,281.5C 235.258,272.765 228.092,266.932 218.5,264C 188.144,259.385 157.811,254.552 127.5,249.5C 126.416,249.685 125.416,250.018 124.5,250.5C 124.5,249.5 124.5,248.5 124.5,247.5C 157.542,243.996 190.542,239.163 223.5,233C 231.421,229.414 236.921,223.58 240,215.5C 244.333,188.833 248.667,162.166 253,135.5C 254.327,129.453 254.493,123.453 253.5,117.5C 254.209,116.596 255.209,116.263 256.5,116.5C 256.584,111.36 257.25,111.36 258.5,116.5 Z"/></g>
<g><path style="opacity:1" fill="#010101" d="M 386.5,249.5 C 408.695,278.03 431.029,306.53 453.5,335C 428.682,340.497 403.682,345.497 378.5,350C 365.654,354.848 357.821,364.015 355,377.5C 350.665,400.842 346.332,424.176 342,447.5C 323.833,433.333 305.667,419.167 287.5,405C 276.723,396.623 266.39,387.789 256.5,378.5C 260.393,348.753 264.893,319.086 270,289.5C 271.295,279.067 276.462,271.233 285.5,266C 318.964,259.441 352.631,253.941 386.5,249.5 Z"/></g>
<g><path style="opacity:1" fill="#010101" d="M 254.5,378.5 C 227.602,401.893 199.935,424.393 171.5,446C 170.833,446.667 170.167,446.667 169.5,446C 164.545,421.559 159.712,397.059 155,372.5C 150.231,360.064 141.398,352.23 128.5,349C 104.601,345.075 80.9345,340.408 57.5,335C 79.7215,306.712 102.055,278.545 124.5,250.5C 125.416,250.018 126.416,249.685 127.5,249.5C 157.811,254.552 188.144,259.385 218.5,264C 228.092,266.932 235.258,272.765 240,281.5C 245.897,313.681 250.731,346.015 254.5,378.5 Z"/></g>
</svg>
